<svg xmlns="http://www.w3.org/2000/svg" width="635" height="706"><path d="M33 33h568M33 105h568M33 176h568M33 247h568M33 318h568M33 389h568M33 460h568M33 531h568M33 602h568M33 673h568M33 34v284m71-284v284m71-284v284m71-284v284m71-284v284m71-284v284m71-284v284m71-284v284m71-284v284M33 389v284m71-284v284m71-284v284m71-284v284m71-284v284m71-284v284m71-284v284m71-284v284m71-284v284M246 34l142 142m0-142L246 176m0 355l142 142m0-142L246 673" stroke="#000" stroke-width="2" stroke-linecap="square"/></svg>